<svg xmlns="http://www.w3.org/2000/svg" width="430" height="430" style="width:100%;height:100%;transform:translate3d(0,0,0);content-visibility:visible" viewBox="0 0 430 430"><defs><path id="e" fill="red" d="M131.885-128.885v257.77c0 .72-.26 1.38-.68 1.9-.55.67-1.38 1.1-2.32 1.1h-257.77c-.71 0-1.36-.25-1.88-.67a2.965 2.965 0 0 1-1.12-2.33v-257.77c0-.809.324-1.545.849-2.086a2.99 2.99 0 0 1 2.151-.914h257.77a2.99 2.99 0 0 1 2.157.917c.522.541.843 1.276.843 2.083z" style="display:block" transform="translate(214.998 216.875)"/><path id="f" fill="red" d="M131.885-128.885v257.77c0 .72-.26 1.38-.68 1.9-.55.67-1.38 1.1-2.32 1.1h-257.77c-.71 0-1.36-.25-1.88-.67a2.965 2.965 0 0 1-1.12-2.33v-257.77c0-.809.324-1.545.849-2.086a2.99 2.99 0 0 1 2.151-.914h257.77a2.99 2.99 0 0 1 2.157.917c.522.541.843 1.276.843 2.083z" style="display:block" transform="translate(214.998 216.875)"/><path id="g" fill="red" d="M131.885-128.885v257.77c0 .72-.26 1.38-.68 1.9-.55.67-1.38 1.1-2.32 1.1h-257.77c-.71 0-1.36-.25-1.88-.67a2.965 2.965 0 0 1-1.12-2.33v-257.77c0-.809.324-1.545.849-2.086a2.99 2.99 0 0 1 2.151-.914h257.77a2.99 2.99 0 0 1 2.157.917c.522.541.843 1.276.843 2.083z" style="display:block" transform="translate(214.998 216.875)"/><path id="h" fill="red" d="M131.885-128.885v257.77c0 .72-.26 1.38-.68 1.9-.55.67-1.38 1.1-2.32 1.1h-257.77c-.71 0-1.36-.25-1.88-.67a2.965 2.965 0 0 1-1.12-2.33v-257.77c0-.809.324-1.545.849-2.086a2.99 2.99 0 0 1 2.151-.914h257.77a2.99 2.99 0 0 1 2.157.917c.522.541.843 1.276.843 2.083z" style="display:block" transform="translate(214.998 216.875)"/><path id="i" style="display:none"/><path id="j" fill="red" d="M34.021-62.259c0 16.456 13.341 29.797 29.797 29.797 16.456 0 29.797-13.341 29.797-29.797 0-16.456-13.341-29.797-29.797-29.797-16.456 0-29.797 13.341-29.797 29.797z" style="display:block" transform="translate(215 213.5)"/><path id="a" style="display:none"/><path id="b" style="display:none"/><path id="c" style="display:none"/><path id="d" style="display:none"/><mask id="v" mask-type="alpha"><use xmlns:ns1="http://www.w3.org/1999/xlink" ns1:href="#a"/></mask><mask id="u" mask-type="alpha"><use xmlns:ns2="http://www.w3.org/1999/xlink" ns2:href="#b"/></mask><mask id="t" mask-type="alpha"><use xmlns:ns3="http://www.w3.org/1999/xlink" ns3:href="#c"/></mask><mask id="s" mask-type="alpha"><use xmlns:ns4="http://www.w3.org/1999/xlink" ns4:href="#d"/></mask><mask id="r" mask-type="alpha"><use xmlns:ns5="http://www.w3.org/1999/xlink" ns5:href="#e"/></mask><mask id="q" mask-type="alpha"><use xmlns:ns6="http://www.w3.org/1999/xlink" ns6:href="#f"/></mask><mask id="p" mask-type="alpha"><use xmlns:ns7="http://www.w3.org/1999/xlink" ns7:href="#g"/></mask><mask id="o" mask-type="alpha"><use xmlns:ns8="http://www.w3.org/1999/xlink" ns8:href="#h"/></mask><mask id="n" mask-type="alpha"><use xmlns:ns9="http://www.w3.org/1999/xlink" ns9:href="#i"/></mask><mask id="m" mask-type="alpha"><use xmlns:ns10="http://www.w3.org/1999/xlink" ns10:href="#j"/></mask><clipPath id="k"><path d="M0 0h430v430H0z"/></clipPath><clipPath id="l"><path d="M0 0h430v430H0z"/></clipPath></defs><g clip-path="url(#k)"><g clip-path="url(#l)" style="display:block"><g style="display:none"><path class="secondary"/><path class="secondary" style="mix-blend-mode:multiply"/><path fill="none" class="primary"/></g><g style="display:block"><path fill="#EBE6EF" d="M188.454 117.351C146 117.351 85 117.1 28.895 117.1v198.398c57.105 0 95.105.251 159.559.251V117.351z" class="secondary"/><path fill="#EBE6EF" fill-opacity=".5" d="M186.454-97.649C144-97.649 83-97.9 26.895-97.9v198.398c57.105 0 95.105.251 159.559.251V-97.649z" class="secondary" style="mix-blend-mode:multiply" transform="translate(2 215)"/><path fill="none" stroke="#121331" stroke-linecap="round" stroke-linejoin="round" stroke-width="7" d="M188.454 117.351C146 117.351 85 117.1 28.895 117.1v198.398c57.105 0 95.105.251 159.559.251V117.351z" class="primary"/></g><g style="display:block"><path fill="#EBE6EF" d="m401.954 117.477-159.559-.251v198.398l159.559.251V117.477z" class="secondary"/><path fill="#EBE6EF" fill-opacity=".5" d="M186.454-97.649 26.895-97.9v198.398l159.559.251V-97.649z" class="secondary" style="mix-blend-mode:multiply" transform="translate(215.5 215.126)"/><path fill="none" stroke="#121331" stroke-linecap="round" stroke-linejoin="round" stroke-width="7" d="m401.954 117.477-159.559-.251v198.398l159.559.251V117.477z" class="primary"/></g><g style="display:none"><path class="secondary"/><path class="secondary" style="mix-blend-mode:multiply"/><path fill="none" class="primary"/></g><path class="secondary" style="display:none"/><path fill="#EBE6EF" d="M131.885-128.885v257.77c0 .72-.26 1.38-.68 1.9-.55.67-1.38 1.1-2.32 1.1h-257.77c-.71 0-1.36-.25-1.88-.67a2.965 2.965 0 0 1-1.12-2.33v-257.77c0-.809.324-1.545.849-2.086a2.99 2.99 0 0 1 2.151-.914h257.77a2.99 2.99 0 0 1 2.157.917c.522.541.843 1.276.843 2.083z" class="secondary" style="display:block" transform="translate(214.998 216.875)"/><path fill="#08A88A" d="M131.893 133.433h-263.766C-88.5 63 91.5 65 131.893 133.433z" class="tertiary" style="display:block" transform="translate(215 215)"/><g fill="#F24C00" style="display:block"><path d="M249.021 151.241c0 16.456 13.341 29.797 29.797 29.797 16.456 0 29.797-13.341 29.797-29.797 0-16.456-13.341-29.797-29.797-29.797-16.456 0-29.797 13.341-29.797 29.797z" class="quaternary"/><path fill-opacity=".5" d="M34.021-62.259c0 16.456 13.341 29.797 29.797 29.797 16.456 0 29.797-13.341 29.797-29.797 0-16.456-13.341-29.797-29.797-29.797-16.456 0-29.797 13.341-29.797 29.797z" class="quaternary" style="mix-blend-mode:multiply" transform="translate(215 213.5)"/></g><g mask="url(#m)" style="display:block"><path fill="#F24C00" d="M269.271 146.366c0 16.456 13.341 29.797 29.797 29.797 16.456 0 29.797-13.341 29.797-29.797 0-16.456-13.341-29.797-29.797-29.797-16.456 0-29.797 13.341-29.797 29.797z" class="quaternary"/></g><path fill="none" stroke="#121331" stroke-linecap="round" stroke-width="7" d="M249.021 151.241c0 16.456 13.341 29.797 29.797 29.797 16.456 0 29.797-13.341 29.797-29.797 0-16.456-13.341-29.797-29.797-29.797-16.456 0-29.797 13.341-29.797 29.797z" class="primary" style="display:block"/><path class="secondary" style="display:none"/><path class="secondary" style="display:none"/><path class="tertiary" style="display:none"/><g style="display:none"><path class="quaternary"/><path class="quaternary" style="mix-blend-mode:multiply"/></g><g mask="url(#n)" style="display:none"><path class="quaternary"/></g><path fill="none" class="primary" style="display:none"/><g mask="url(#o)" style="display:block"><path fill="#08A88A" d="M86.045 348.135h209.81l-103.462-179.17c-1.155-2-4.041-2-5.196 0l-103.032 178.5a3 3 0 0 0 1.88.67z" class="tertiary"/></g><g mask="url(#p)" style="display:block"><path fill="none" stroke="#121331" stroke-linecap="round" stroke-width="7" d="M86.045 348.135h209.81l-103.462-179.17c-1.155-2-4.041-2-5.196 0l-103.032 178.5a3 3 0 0 0 1.88.67z" class="primary"/></g><g fill="#08A88A" mask="url(#q)" style="display:block"><path d="M345.232 348.58a2.992 2.992 0 0 0 1.038-.805l-49.101-85.04c-1.155-2-4.042-1.999-5.196.001l-49.723 86.129h101.7c.443.001.881-.097 1.282-.285z" class="tertiary"/><path fill-opacity=".5" d="M50.972 43.53a2.992 2.992 0 0 0 1.038-.805L2.909-42.315c-1.155-2-4.042-1.999-5.196.001L-52.01 43.815h101.7c.443.001.881-.097 1.282-.285z" class="tertiary" style="mix-blend-mode:multiply" transform="translate(294.26 305.05)"/></g><g mask="url(#r)" style="display:block"><path fill="none" stroke="#121331" stroke-linecap="round" stroke-width="7" d="M345.232 348.58a2.992 2.992 0 0 0 1.038-.805l-49.101-85.04c-1.155-2-4.042-1.999-5.196.001l-49.723 86.129h101.7c.443.001.881-.097 1.282-.285z" class="primary"/></g><g mask="url(#s)" style="display:none"><path class="tertiary"/></g><g mask="url(#t)" style="display:none"><path fill="none" class="primary"/></g><g mask="url(#u)" style="display:none"><path class="tertiary"/><path class="tertiary" style="mix-blend-mode:multiply"/></g><g mask="url(#v)" style="display:none"><path fill="none" class="primary"/></g><path fill="none" class="primary" style="display:none"/><path fill="none" class="primary" style="display:none"/><path fill="none" class="primary" style="display:none"/><path fill="none" stroke="#121331" stroke-linecap="round" stroke-linejoin="round" stroke-width="7" d="M131.885-128.885v257.77c0 .72-.26 1.38-.68 1.9-.55.67-1.38 1.1-2.32 1.1h-257.77c-.71 0-1.36-.25-1.88-.67a2.965 2.965 0 0 1-1.12-2.33v-257.77c0-.809.324-1.545.849-2.086a2.99 2.99 0 0 1 2.151-.914h257.77a2.99 2.99 0 0 1 2.157.917c.522.541.843 1.276.843 2.083z" class="primary" style="display:block" transform="translate(214.998 216.875)"/></g></g></svg>